<?xml version="1.0" encoding="utf-8"?>
<!-- Generator: Adobe Illustrator 16.0.0, SVG Export Plug-In . SVG Version: 6.00 Build 0)  -->
<!DOCTYPE svg PUBLIC "-//W3C//DTD SVG 1.1//EN" "http://www.w3.org/Graphics/SVG/1.1/DTD/svg11.dtd">
<svg version="1.1" id="Layer_1" xmlns="http://www.w3.org/2000/svg" xmlns:xlink="http://www.w3.org/1999/xlink" x="0px" y="0px"
	 width="64px" height="64px" viewBox="0 0 64 64" enable-background="new 0 0 64 64" xml:space="preserve">
<g>
	<path d="M54.998,12.732H9.002c-0.629,0-1.138,0.509-1.138,1.138v26.089c0,0.629,0.509,1.138,1.138,1.138h19.337v7.548h0.846v-7.548
		h5.63v7.548h0.846v-7.548h19.337c0.629,0,1.138-0.509,1.138-1.138V13.87C56.136,13.241,55.627,12.732,54.998,12.732z M53.86,38.821
		H10.14V15.007H53.86V38.821z"/>
	<path d="M38.879,48.481c-0.202,0.218-0.867,0.511-1.186,0.511H26.307c-0.318,0-0.984-0.293-1.186-0.511v-2.558h-2.276v2.678
		c0,1.726,2.287,2.667,3.461,2.667h11.387c1.174,0,3.461-0.941,3.461-2.667v-2.678h-2.276V48.481z"/>
	<path d="M37.571,29.758v-9.566l-7.986-1.538l-5.782,3.06l0.051,0.097l-0.059-0.012v9.414l7.791,1.84L37.571,29.758z M31.193,32.492
		l-6.986-1.608v-8.573l6.986,1.502V32.492z M24.356,21.919l5.294-2.801l7.221,1.448l-5.308,2.907L24.356,21.919z"/>
	<rect x="12.387" y="16.128" width="1.576" height="0.248"/>
	<rect x="12.387" y="16.7" width="5.8" height="0.249"/>
	<rect x="12.387" y="17.442" width="5.8" height="0.249"/>
	<rect x="12.387" y="19.05" width="5.8" height="0.249"/>
	<rect x="12.387" y="19.638" width="4.438" height="0.247"/>
	<path d="M51.613,30.383h-8.674v7.377h8.674V30.383z M50.872,37.017h-7.191v-5.892h7.191V37.017z"/>
	<rect x="48.832" y="31.682" width="1.577" height="0.325"/>
	<rect x="44.145" y="31.682" width="0.789" height="1.577"/>
	<rect x="47.873" y="33.491" width="1.747" height="0.581"/>
	<rect x="47.873" y="34.35" width="1.747" height="0.58"/>
	<rect x="47.873" y="35.194" width="1.747" height="0.578"/>
	<circle cx="47.383" cy="21.501" r="0.805"/>
	<path d="M45.672,19.064c0.097,0.097,0.253,0.097,0.35,0c0.047-0.047,0.071-0.11,0.071-0.172c0-0.063-0.024-0.126-0.071-0.176
		l-0.248-0.246h1.362v1.924h0.493V18.47h1.361l-0.246,0.249c-0.097,0.094-0.097,0.251,0,0.348c0.096,0.095,0.252,0.095,0.346,0
		l0.668-0.668c0.046-0.046,0.071-0.107,0.071-0.175c0-0.064-0.025-0.126-0.071-0.173l-0.668-0.667c-0.094-0.096-0.25-0.096-0.346,0
		c-0.048,0.049-0.072,0.112-0.072,0.174c0,0.063,0.024,0.126,0.072,0.173l0.246,0.248h-1.361v-1.123l0.245,0.246
		c0.097,0.095,0.253,0.095,0.35,0c0.096-0.096,0.096-0.253,0-0.348l-0.667-0.667c-0.046-0.046-0.109-0.073-0.174-0.073
		s-0.127,0.027-0.174,0.073l-0.667,0.667c-0.094,0.094-0.094,0.251,0,0.348c0.048,0.048,0.111,0.072,0.174,0.072
		c0.063,0,0.125-0.024,0.173-0.072l0.248-0.246v1.122h-1.362l0.248-0.246c0.095-0.096,0.095-0.252,0-0.348
		c-0.097-0.096-0.252-0.096-0.35,0l-0.665,0.669c-0.047,0.045-0.073,0.107-0.073,0.174c0,0.065,0.026,0.126,0.073,0.172
		L45.672,19.064z"/>
	<path d="M16.066,32.727l-1.412,0.012v0.691l1.49-0.011c1.11,0,1.729,0.612,1.722,1.686c0,1.232-0.685,1.866-1.837,1.859
		c-0.18,0-0.367,0-0.49-0.021v-2.697h-0.885v3.359c0.288,0.036,0.676,0.065,1.195,0.065c0.944,0,1.714-0.223,2.197-0.663
		c0.462-0.418,0.757-1.066,0.757-1.93c0-0.829-0.289-1.406-0.757-1.787C17.601,32.915,16.973,32.727,16.066,32.727z"/>
	<path d="M12.512,36.968c-0.462,0-0.917-0.187-1.103-0.298L11.2,37.364c0.261,0.171,0.769,0.334,1.357,0.334
		c1.2,0,1.885-0.647,1.885-1.468c0-0.656-0.477-1.103-1.065-1.207v-0.015c0.596-0.209,0.894-0.626,0.894-1.133
		c0-0.634-0.514-1.185-1.513-1.185c-0.581,0-1.118,0.179-1.394,0.373l0.209,0.663c0.201-0.134,0.596-0.306,0.99-0.306
		c0.529,0,0.776,0.276,0.776,0.604c0,0.484-0.537,0.678-0.962,0.678h-0.409v0.671h0.424c0.558,0,1.095,0.246,1.095,0.819
		C13.496,36.573,13.212,36.968,12.512,36.968z"/>
</g>
</svg>
